<?xml version="1.0" encoding="utf-8"?><svg xmlns="http://www.w3.org/2000/svg" xmlns:xlink="http://www.w3.org/1999/xlink"><symbol id="1" viewBox="0 0 19.6 20.4" xml:space="preserve" xmlns="http://www.w3.org/2000/svg"><style>.ast0{fill:none;stroke:#000;stroke-width:.75;stroke-miterlimit:10}.ast1{fill:#fff}</style><g id="aиконка"><circle class="ast0" cx="9.9" cy="10.7" r="9.3"/><path transform="rotate(50.437 2.644 4.805)" class="ast1" d="M1.8 4h1.6v1.5H1.8z"/><path transform="rotate(50.437 16.957 4.805)" class="ast1" d="M16.2 4h1.6v1.5h-1.6z"/><path transform="rotate(56.441 15.699 17.825)" class="ast1" d="M14.9 16.8h1.6v2h-1.6z"/><ellipse transform="rotate(-3.5 9.582 3.497) scale(.99996)" cx="9.6" cy="3.5" rx="2.7" ry="3.1" stroke-width=".75" stroke-miterlimit="10"/><path class="ast0" d="M5.2 18.6s-.1-3.4.2-5c.2-1.5 1-2.4.7-3.3 0 0-.8-1.2-1.4-1.8S1.5 4.8 1.5 4.8s-.5-.7 0-1.1c.5-.3 1.1-.3 1.3-.1S5 5.9 5 5.9 7.1 8 9.1 8c2 0 3-.6 3.3-.8s1.3-.8 1.8-1.2l2.5-2s.7-.7 1.1-.5c0 0 .5.1.7.5s-.6 1.2-.6 1.2l-2.2 2.2s-2.3 2.6-2.4 4.4c0 0-.2 1.8.2 3.6s1 3.1 1 3.1"/></g></symbol><symbol viewBox="0 0 22.3 18.9" id="2" xmlns="http://www.w3.org/2000/svg"><path d="M7.3 11.6c-.3-.7-.9-2-1.7-2.7-1.2-1-2.1-2.4-2.5-3.8 0-.5.3-1 1-1.2 0 0 .2 1 .7 1s.8-.2 1.4-.9c.6-.7.7-.8.7-.8s.5-.8 0-1.2S5.1.7 5.1.7 4.5.5 4.2.5s-.9 0-1.4.5C2.2 1.4 1 2.6 1 2.6s-.6.8-.6 1.9c0 1.2.4 4.8.4 4.8s.5 2.5 1.1 4.1c.6 1.6 1.9 3.3 3.1 4.3.4.4.9.7 1.1.7.6 0 1.4-.6 2.1-.6.7 0 2.1.6 3.4.6s5.3-.9 6.8-5.8c0 0 3.5-.8 3.5-4.5s-3.1-4.6-4.4-4.6-4.5.9-4.5 4.2v.6s-.7-.5-1.8-.5-3.4.7-3.6 3.7l-.3.1z" stroke-width=".75" stroke-miterlimit="10"/></symbol><symbol id="3" viewBox="0 0 20.6 20.8" xml:space="preserve" xmlns="http://www.w3.org/2000/svg"><style>.cst0{fill:none;stroke:#000;stroke-width:.75;stroke-miterlimit:10}</style><circle class="cst0" cx="10.3" cy="10.4" r="9.8"/><path class="cst0" d="M4.1 12.8s2.4 3.3 6.1 3.3 5.9-3.3 5.9-3.3m-9.2-1.7S4.3 9.7 4.3 8.4c-.1-1.2 1.4-2.1 2.6-.6"/><path class="cst0" d="M6.5 11.1s2.6-1.4 2.6-2.7c.1-1.2-1.4-2.1-2.6-.7"/><path d="M6.6 8l.1.1.1-.1v-.2l-.2.1z"/><path class="cst0" d="M13.7 11.1s-2.6-1.4-2.6-2.7c-.1-1.2 1.4-2.1 2.6-.7"/><path class="cst0" d="M13.3 11.1s2.6-1.4 2.6-2.7c.1-1.2-1.4-2.1-2.6-.7"/><path d="M13.4 8l.1.1.1-.1v-.2l-.2.1z"/></symbol><symbol id="4" viewBox="0 0 15.2 15.2" xml:space="preserve" xmlns="http://www.w3.org/2000/svg"><style>.dst0{fill:none;stroke:#000;stroke-width:.5;stroke-miterlimit:10}</style><g id="dлинейка"><path class="dst0" d="M10 3.8S10.3.4 6.2.4H3.7S1 .4.4 2.6v6.1c0 .4.6 2.4 3.5 2.4"/><path class="dst0" d="M14.7 6.8v6.3c0 1.7-1.6 1.6-1.6 1.6H6.7c-1.4 0-1.5-.8-1.5-.8v-3.4c0-1.7 1.2-1.6 1.2-1.6h6.2c1.5 0 2.1-.7 2.1-2.1s-1.4-1.7-1.4-1.7H4C2.1 5.1.8 3.7.8 3.7l-.4-.5m8.5 7.6V9m3.6 1.8V8.9"/><ellipse cx="5.2" cy="2.9" rx="1" ry=".4"/></g></symbol><symbol id="5" viewBox="0 0 16 15.2" xml:space="preserve" xmlns="http://www.w3.org/2000/svg"><style>.est0{fill:none;stroke:#000;stroke-width:.5;stroke-miterlimit:10}</style><g id="eлистья"><path class="est0" d="M2.4 14.9S5.3 9 12.3 9.6m-8 2.7s-.8-5.4 5.1-5.5c4.5.3 6.1 2.7 6.1 2.7s-2 4.3-7 4.8c-1.6.1-3.6-1-3.6-1m-2.1-1.2s-.1-2.2-.4-3.2-.4-3.6.3-5.1"/><path class="est0" d="M2.3 9.4s-2-1-1.8-3.8S3 .6 3 .6s4.1 3.7.6 7.9"/></g></symbol><symbol id="6" viewBox="0 0 18.2 14.8" xml:space="preserve" xmlns="http://www.w3.org/2000/svg"><style>.fst0,.fst1{fill:none;stroke:#000;stroke-width:.5;stroke-miterlimit:10}.fst1{fill:#fff}</style><g id="fдоставка"><path class="fst0" d="M1.9 12h8.3c.4 0 .8-.3.8-.8V3c0-.4-.3-.8-.8-.8H1.9c-.5 0-.8.4-.8.8v8.3c0 .4.3.7.8.7z"/><path class="fst0" d="M11.2 3.8h3.6s.4 0 .9.5c.2.2.4.5.7.9.5.7 1.1 1.4 1.1 1.4s.4.4.4 1.1v3.5s.1.8-1.1.8h-6.3"/><circle class="fst1" cx="4.7" cy="12.4" r="1.9"/><circle class="fst1" cx="14.1" cy="12.4" r="1.9"/><circle class="fst1" cx="4" cy="4.2" r="3.7"/><path class="fst0" d="M2.7 5.5l1.4-1.1V1.9"/><circle cx="4" cy="4.4" r=".5"/><path class="fst0" d="M17.7 8.1h-4s-.6-.1-.6-.8V5.8s0-.5.7-.5h2.5"/></g></symbol></svg>